<svg xmlns="http://www.w3.org/2000/svg" viewBox="0 0 37.38 50.91"><defs><style>.cls-1{fill:#1a1a1a;}</style></defs><g id="Capa_2" data-name="Capa 2"><g id="Capa_2-2" data-name="Capa 2"><path class="cls-1" d="M18.72,50.91H4.54A4.31,4.31,0,0,1,0,46.35V23.9a4.32,4.32,0,0,1,4.51-4.54H32.87a4.32,4.32,0,0,1,4.51,4.54V46.35a4.31,4.31,0,0,1-4.54,4.56Z"/><path class="cls-1" d="M32.84,18H28.48c0-.29,0-.56,0-.83a34.32,34.32,0,0,0-.26-4.87A9.75,9.75,0,0,0,9,13a15.91,15.91,0,0,0-.1,1.83c0,1,0,2,0,3.1H4.51s-.07-.06-.07-.09c-.09-3.29-.17-6.56,1.33-9.65a14.37,14.37,0,0,1,15.1-8A14.17,14.17,0,0,1,32.8,12.36,45.19,45.19,0,0,1,32.84,18Z"/></g></g></svg>