<svg xmlns="http://www.w3.org/2000/svg" viewBox="0 0 49.07 44.63"><defs><style>.cls-1{fill:#268dc9;}</style></defs><g id="Capa_2" data-name="Capa 2"><g id="Capa_2-2" data-name="Capa 2"><path class="cls-1" d="M18.74,27.67c.08.27.13.45.18.64.19.68.38,1.36.54,2,.07.29.18.42.51.41,2.31,0,4.61,0,6.91,0H42.54a3.26,3.26,0,0,1,1.69.44,1.33,1.33,0,0,1,.1,2.33,2.94,2.94,0,0,1-1.78.5H17.28c-.29,0-.39-.07-.47-.37-.32-1.34-.69-2.67-1-4-.68-2.57-1.35-5.14-2-7.71Q12.37,16.81,11,11.69C10.33,9.14,9.66,6.6,9,4.05a.52.52,0,0,0-.58-.47c-2.19,0-4.37-.1-6.56-.15A1.9,1.9,0,0,1,0,1.73,1.41,1.41,0,0,1,1.15.11,11,11,0,0,1,3.06,0L9.59,0A2,2,0,0,1,11.77,1.7c.46,1.67.9,3.34,1.35,5a6.61,6.61,0,0,1,.22.76c0,.32.18.42.51.42,6.94,0,13.89,0,20.83,0H46.15a3.2,3.2,0,0,1,2.15.76,2.23,2.23,0,0,1,.64,2.43c-.6,1.56-1.21,3.11-1.81,4.66L42.87,26.67a1.49,1.49,0,0,1-1.3,1c-.21,0-.43,0-.64,0H18.74Z"/><path class="cls-1" d="M22.4,36a4.3,4.3,0,0,1,4.31,4.28,4.3,4.3,0,1,1-8.59,0A4.29,4.29,0,0,1,22.4,36Z"/><path class="cls-1" d="M42.28,40.36A4.28,4.28,0,1,1,38.08,36,4.28,4.28,0,0,1,42.28,40.36Z"/></g></g></svg>