<svg xmlns="http://www.w3.org/2000/svg" viewBox="0 0 58.92 53.58"><defs><style>.cls-1{fill:#1a1a1a;}</style></defs><g id="Capa_2" data-name="Capa 2"><g id="Capa_2-2" data-name="Capa 2"><path class="cls-1" d="M22.5,33.23c.09.31.16.54.22.76.22.82.45,1.63.65,2.45.08.35.21.5.61.5,2.77,0,5.53,0,8.29,0h18.8a3.9,3.9,0,0,1,2,.53,1.59,1.59,0,0,1,.13,2.79,3.54,3.54,0,0,1-2.14.61H20.74c-.35,0-.47-.09-.55-.45-.4-1.61-.84-3.2-1.26-4.81-.82-3.08-1.63-6.17-2.45-9.25Q14.85,20.19,13.22,14C12.41,11,11.6,7.92,10.81,4.86a.63.63,0,0,0-.7-.56c-2.63,0-5.25-.12-7.88-.18A2.28,2.28,0,0,1,0,2.08,1.69,1.69,0,0,1,1.38.13,12.52,12.52,0,0,1,3.67,0C6.28,0,8.9,0,11.51,0a2.41,2.41,0,0,1,2.62,2c.55,2,1.08,4,1.62,6A7.25,7.25,0,0,1,16,9c.06.39.22.5.62.5q12.51,0,25,0c4.59,0,9.18,0,13.77,0a3.86,3.86,0,0,1,2.58.91,2.68,2.68,0,0,1,.77,2.92c-.72,1.87-1.45,3.74-2.17,5.6Q54,25.46,51.48,32a1.79,1.79,0,0,1-1.57,1.19,6.57,6.57,0,0,1-.77,0H22.5Z"/><path class="cls-1" d="M26.9,43.27a5.16,5.16,0,1,1-5.15,5.16A5.16,5.16,0,0,1,26.9,43.27Z"/><path class="cls-1" d="M50.77,48.46a5.14,5.14,0,1,1-5.05-5.19A5.16,5.16,0,0,1,50.77,48.46Z"/></g></g></svg>