<svg xmlns="http://www.w3.org/2000/svg" viewBox="0 0 49.76 48.88"><defs><style>.cls-1{fill:#268dc9;}</style></defs><g id="Capa_2" data-name="Capa 2"><g id="Capa_2-2" data-name="Capa 2"><path class="cls-1" d="M49.76,15.88v29c-1,2.95-3.06,4.15-6.15,4-3.34-.13-6.7,0-10,0H32.34c0-4,0-7.83,0-11.65a10.84,10.84,0,0,0-.18-2.42,7.45,7.45,0,0,0-14.72,1.54c-.06,3.75,0,7.51,0,11.27v1.2c-.31,0-.49.06-.67.06H4.81a4.3,4.3,0,0,1-.87-.1C1.81,48.27.69,46.78,0,44.85v-29a7.06,7.06,0,0,1,3.53-4Q12.61,6.55,21.58,1a5.73,5.73,0,0,1,6.59,0q9,5.51,18,10.84A7.13,7.13,0,0,1,49.76,15.88Z"/></g></g></svg>