<?xml version='1.0' encoding='iso-8859-1'?>
<!DOCTYPE svg PUBLIC '-//W3C//DTD SVG 1.1//EN' 'http://www.w3.org/Graphics/SVG/1.1/DTD/svg11.dtd'>
<svg version="1.1" xmlns="http://www.w3.org/2000/svg" viewBox="0 0 296.893 296.893" xmlns:xlink="http://www.w3.org/1999/xlink" enable-background="new 0 0 296.893 296.893">
  <g>
    <circle cx="66.354" cy="54.742" r="32.683"/>
    <path d="m195.076,84.572c16.395,0 29.732-13.382 29.732-29.83 0-16.449-13.338-29.831-29.732-29.831-16.395,0-29.732,13.382-29.732,29.831 0,16.448 13.338,29.83 29.732,29.83z"/>
    <path d="m210.479,13.871c14.393,5.468 25.17,18.358 27.648,33.986 8.84,6.413 9.566,23.199 8.943,28.981-0.484,4.205 1.758,8.25 5.578,10.07 1.361,0.648 2.814,0.963 4.258,0.963 2.606,0 5.172-1.028 7.078-2.976 12.633-12.901 18.332-31.987 15.248-51.055-2.303-14.235-9.084-25.208-18.602-30.104-23.679-12.184-49.116,9.253-50.151,10.135z"/>
    <path d="m244.543,251.623l-10.283-119.051c-1.082-13.935-13.27-25.214-27.176-25.214h-24.016c-13.906,0-26.092,11.243-27.162,25.064l-10.348,119.2h98.985z"/>
    <path d="m168.516,289.159c1.016,4.522 5.029,7.734 9.664,7.734h31.689c4.412,0 8.291-2.917 9.516-7.154l6.279-21.73-61.895-.001 4.747,21.151z"/>
    <path d="m115.869,205.343l-9.17-72.986c-1.703-13.551-14.68-24.999-28.338-24.999h-24.017c-13.658,0-26.635,11.448-28.336,24.999l-9.17,72.987 99.031-.001z"/>
    <path d="m37.297,288.462c0.729,4.846 4.891,8.432 9.793,8.432h41.264c5.025,0 9.254-3.765 9.838-8.756l7.75-66.39h-78.67l10.025,66.714z"/>
  </g>
</svg>
