<svg xmlns="http://www.w3.org/2000/svg" viewBox="0 0 53.39 48.03"><g id="Capa_2" data-name="Capa 2"><g id="Capa_2-2" data-name="Capa 2"><path d="M16.21,21.72c4.38,0,8.77,0,13.15,0a2.58,2.58,0,0,0,1.84-1c3.07-4.81,9.26-4.89,12.16,0a2,2,0,0,0,2.07,1.14c1.81-.07,3.63,0,5.44,0a2.23,2.23,0,0,1,2.51,2.21c.11,1.38-.91,2.33-2.53,2.36-1.87,0-3.76-.06-5.63.06a2.52,2.52,0,0,0-1.7,1c-3.17,4.93-9.25,5-12.26,0a2,2,0,0,0-2.12-1H2.85C.7,26.29-.66,24.67.32,23.14a3.58,3.58,0,0,1,2.56-1.35C7.32,21.65,11.77,21.72,16.21,21.72Z"/><path d="M37.68,21.74A2.31,2.31,0,0,0,35,24a2.3,2.3,0,0,0,4.59,0A2.11,2.11,0,0,0,37.68,21.74Z"/><path d="M40.13,43.3c-3.38,0-6.76-.06-10.13.05a2.9,2.9,0,0,0-2,1.11c-3.09,4.78-9.1,4.75-12.22-.06a2.65,2.65,0,0,0-1.86-1c-3.63-.11-7.26,0-10.89-.08-2,0-3-.85-2.95-2.33s1.06-2.27,3-2.27c3.62,0,7.25,0,10.88-.06a2.6,2.6,0,0,0,1.82-1.06c3-4.7,9.21-4.81,12.06-.06a2.17,2.17,0,0,0,2.23,1.18c6.82,0,13.64,0,20.46,0,1.81,0,2.82.84,2.85,2.27s-1,2.33-2.75,2.35C47.14,43.32,43.63,43.3,40.13,43.3Z"/><path d="M24.17,40.74A2.17,2.17,0,0,0,22,38.68,2.26,2.26,0,0,0,19.59,41a2.16,2.16,0,0,0,2.24,2.26A2.26,2.26,0,0,0,24.17,40.74Z"/><path d="M37.81,9.35c-4.13,0-8.26,0-12.39,0a2.14,2.14,0,0,0-2.22,1.17,6.82,6.82,0,0,1-12-.06A2,2,0,0,0,9.13,9.34c-2.13.05-4.25,0-6.38,0C1.21,9.37.21,8.7.07,7.11,0,5.7,1,4.76,2.79,4.73c2.12,0,4.26.09,6.37-.07a2.94,2.94,0,0,0,2-1.13c3-4.68,9.18-4.74,12.05,0a2.2,2.2,0,0,0,2.26,1.15q11.91,0,23.83,0h1.5c1.54,0,2.58.73,2.56,2.34s-1.07,2.29-2.61,2.29Z"/><path d="M17.08,9.36a2.39,2.39,0,0,0,2.46-2.48,2.3,2.3,0,0,0-4.6.3A2.22,2.22,0,0,0,17.08,9.36Z"/></g></g></svg>