<svg xmlns="http://www.w3.org/2000/svg" xmlns:xlink="http://www.w3.org/1999/xlink" viewBox="0 0 1081.06 2266.05"><defs><style>.cls-1{fill:url(#Degradado_sin_nombre_13);}.cls-2{opacity:0.19;}.cls-3{fill:#268dc9;}</style><radialGradient id="Degradado_sin_nombre_13" cx="540.53" cy="960" fx="-150.51764182662646" fy="71.60934857805398" r="1762.09" gradientUnits="userSpaceOnUse"><stop offset="0" stop-color="#3455a2"/><stop offset="0.24" stop-color="#2d70b6"/><stop offset="0.39" stop-color="#2a7bbe"/><stop offset="0.47" stop-color="#2980c1"/><stop offset="0.7" stop-color="#288ac8"/><stop offset="1" stop-color="#278dca"/></radialGradient></defs><g id="Capa_2" data-name="Capa 2"><g id="Capa_2-2" data-name="Capa 2"><rect class="cls-1" width="1081.06" height="1920"/><g class="cls-2"><path class="cls-3" d="M814,1539c-1.2,8.41-6.09,12.62-14.5,12.62H761.61c-8.41,0-11.92-4.21-10.72-12.62s-2.5-12.61-10.91-12.61-13.12,4.2-14.32,12.61c-2.4,16.82,4.15,27.33,20.26,31.54a74.75,74.75,0,0,1,39.79,25.22c10.4,12.62,13.19,31.54,9.59,56.76-.73,5-1.07,7.57-1.71,12.62-5.34,42.05-21.25,63.07-54.88,63.07H688.25c-33.63,0-51.37-21-46-63.07.64-5,1-7.57,1.71-12.62,1.2-8.4,6.09-12.61,14.5-12.61h37.84c8.41,0,11.93,4.21,10.73,12.61s2.5,12.62,10.91,12.62,13.11-4.21,14.31-12.62c2.41-16.81-4.15-27.32-20.25-31.53a74.71,74.71,0,0,1-39.79-25.23c-10.4-12.61-13.19-31.53-9.59-56.76.72-5,1.07-7.57,1.71-12.61,5.34-42,21.24-63.07,54.88-63.07h50.45c33.64,0,51.38,21,46,63.07C815,1531.39,814.68,1533.92,814,1539Z"/><path class="cls-3" d="M981.6,1539c-1.21,8.41-6.1,12.62-14.5,12.62H929.25c-8.41,0-11.93-4.21-10.73-12.62s-2.49-12.61-10.9-12.61-13.12,4.2-14.32,12.61c-2.4,16.82,4.15,27.33,20.26,31.54a74.69,74.69,0,0,1,39.78,25.22c10.41,12.62,13.2,31.54,9.59,56.76-.72,5-1.06,7.57-1.7,12.62-5.35,42.05-21.25,63.07-54.89,63.07H855.89c-33.64,0-51.37-21-46-63.07.64-5,1-7.57,1.71-12.62,1.2-8.4,6.09-12.61,14.5-12.61h37.84c8.4,0,11.93,4.21,10.73,12.61s2.5,12.62,10.9,12.62,13.12-4.21,14.32-12.62c2.41-16.81-4.15-27.32-20.26-31.53a74.68,74.68,0,0,1-39.78-25.23c-10.4-12.61-13.2-31.53-9.59-56.76.72-5,1.06-7.57,1.71-12.61,5.34-42,21.24-63.07,54.88-63.07h50.45c33.64,0,51.38,21,46,63.07C982.66,1531.39,982.32,1533.92,981.6,1539Z"/><path class="cls-3" d="M1081.06,2199.18c-14.13,8.14-29.43,14.2-44.87,19.38a214,214,0,0,1-108.74,7.2c-37.28-7.12-72.47-22.24-107.08-37.35l-10-4.37c-45.45-19.93-92.43-40.53-148.69-52.71a244.94,244.94,0,0,0-52-5.49c-96.42,0-183.68,53.66-229.22,87.6l111.76-543v218.21c0,14.15,6.94,21.66,20,21.66h568.89V1878.7H523.87v-570H652.61V1342a74.27,74.27,0,0,0,0,8.31c.59,5.17-1.25,8.57-5.29,12.15-9.36,8.29-12.39,19.25-8.58,31.19s12.14,19.72,25,21.3c13.06,1.61,23.68-2.82,30.55-14.37,8.35-14,5.28-29.75-7.32-40.15-1.51-1.25-3.26-3.34-3.29-5.06-.26-15.31-.15-30.63-.15-46.42H934c0,15.75.14,31.4-.19,47,0,1.81-2.47,3.8-4.15,5.31-9.12,8.21-13,18.18-10.11,30.28,2.76,11.47,9.77,19.2,21.25,22.54a30.37,30.37,0,0,0,35.73-15c7-13.11,4-28.46-7.68-37.84a9.52,9.52,0,0,1-4-8.42c.18-14.55.07-29.1.07-44.07h116.06v-31.54c-4.41.07-8.83.12-13.24.11-13.4,0-26.8-.13-40.2-.22l53.44-66.89v-37.78L995.55,1276.9l-6.93,0c-7.68,0-15.36,0-23.61,0,0-10.34,0-20.09,0-29.84-.16-36-10.09-68.79-32.34-97.38-30.13-38.72-70-59.09-118.86-61.25-29-1.27-56.39,5.61-81.66,20-30.3,17.29-52.56,41.93-66.53,74-9.75,22.37-13.5,45.82-12.84,70.11.21,7.9,0,15.82,0,24.31H604c-29.92,0-59.85,0-89.77.11-15.89.06-21.93,6.33-21.95,22.36q0,44.17-.07,88.35c-2.74,1.3-5.53,2.7-8.42,4.24-3.89,1.86-18.33,10.09-51.85,41.93-7.38,7-19.27,17.47-33,29.58-57.34,50.45-144,126.69-163.66,175.07-15.44,38-1.62,114.3,41.1,226.79,1.18,3.09,2,5.39,2.54,6.75a94,94,0,0,1,2.76,11.24c3.62,17.37,9.08,43.63,40.33,60.73a46.76,46.76,0,0,0,22.6,5.9c13.1,0,26.2-5.63,37.09-16.49,16.51-16.46,22.11-38.86,13.62-54.48-2.84-5.22-4.8-9.53-6.39-13-5.32-11.68-10.33-22.69-31.54-20.08-2.11.26-4.07.6-5.89,1-.35-41.34-2-129.46-10.06-167.35,21.23-13,80.18-49.57,136.59-86.78L343,2248.27a14.81,14.81,0,0,0,24.6,13.81c1.43-1.34,144.66-132.81,287.8-101.81,53.35,11.55,99,31.54,143.06,50.88,79,34.64,153.49,66.94,247.87,35.22a297.54,297.54,0,0,0,34.71-13.66Zm-397.43-957.6c.78-54,38.19-103.26,89.83-117.36,49.94-13.63,93.1-1,128.4,36.41,20.44,21.68,30.79,48.33,32,78.19.5,12.33.09,24.7.09,37.79H683.61C683.61,1264.74,683.46,1253.16,683.63,1241.58ZM320.44,1663a12.45,12.45,0,0,0-5.26,14.76c9.5,27.06,11.44,146,11.38,189.62a12.46,12.46,0,0,0,22.95,6.75c.58-.52,3.41-2.69,10.86-3.62a28.38,28.38,0,0,1,2.94-.24c.79,1.41,1.91,3.86,2.85,5.92,1.75,3.86,3.94,8.66,7.16,14.58,2.67,4.9-.44,16.08-9.31,24.93-4.45,4.43-16.3,13.93-30.12,6.37-21.16-11.57-24.58-28-27.89-43.94a109.17,109.17,0,0,0-3.69-14.52c-.52-1.46-1.45-3.93-2.71-7.24-53-139.54-48.63-190.56-41.31-208.55,17.45-42.94,104.83-119.81,157-165.74,14-12.29,26-22.89,33.75-30.22,25.33-24.07,38.23-33.13,43.08-36.15,0,3.44,0,6.89,0,10.34q0,48.78,0,97.54L485.07,1558C411.15,1607.54,321.84,1662.16,320.44,1663Z"/></g></g></g></svg>