<svg xmlns="http://www.w3.org/2000/svg" viewBox="0 0 48.56 48.52"><defs><style>.cls-1{fill:#268dc9;}</style></defs><g id="Capa_2" data-name="Capa 2"><g id="Capa_2-2" data-name="Capa 2"><path class="cls-1" d="M26,48.52H22.59a2.33,2.33,0,0,0-.36-.08,23.58,23.58,0,0,1-7.83-2A24.31,24.31,0,0,1,.24,20.89,23.46,23.46,0,0,1,5.89,8.45,23.82,23.82,0,0,1,27.68.22a22.62,22.62,0,0,1,10.88,4.4A23.93,23.93,0,0,1,48.18,20c.16.85.26,1.71.38,2.57V26c-.1.76-.18,1.53-.31,2.29a24,24,0,0,1-7.5,13.84,23.76,23.76,0,0,1-12.18,6.06C27.72,48.3,26.86,48.4,26,48.52ZM20.5,30.58v9.05a1.62,1.62,0,0,0,1.77,1.81q2.13,0,4.26,0a1.63,1.63,0,0,0,1.79-1.8c0-.77,0-1.55,0-2.32q0-7.84,0-15.68a1.69,1.69,0,0,0-1.94-1.94h-4a1.67,1.67,0,0,0-1.85,1.88Zm7.89-18.13a4.09,4.09,0,1,0-4.09,4.09A4.1,4.1,0,0,0,28.39,12.45Z"/></g></g></svg>