<svg xmlns="http://www.w3.org/2000/svg" viewBox="0 0 341 435.34"><defs><style>.cls-1,.cls-2{fill:#fff;}.cls-2{font-size:65.47px;font-family:FormaDJRMicro-Bold, Forma DJR Micro;font-weight:700;}.cls-3{letter-spacing:-0.01em;}</style></defs><g id="Capa_2" data-name="Capa 2"><g id="Capa_2-2" data-name="Capa 2"><path class="cls-1" d="M306.17,293.14c-.36-.19-36.49-20.19-67.88-157.76V115.63c16.56-27.93,33.29-57.26,39.33-67.9A7.16,7.16,0,0,0,280,49.07c3.17,1.09,7,0,11.33-3.23a10,10,0,0,0,4.43-8c.11-5.48-4.33-10.67-7.08-13.36,5.16-7.08,11.49-19.15,9-22.83A3.64,3.64,0,0,0,294.58,0c-2.29,0-4.15,2.21-5.1,3.6l-80.31,98.13h-1.55c-1.72,0-3.44,0-5.29,0,0-2.32,0-4.51,0-6.69a34.76,34.76,0,0,0-7.25-21.83,34.24,34.24,0,0,0-26.64-13.72A33.3,33.3,0,0,0,150.14,64a34.51,34.51,0,0,0-14.91,16.58,36.33,36.33,0,0,0-2.88,15.71c.05,1.77,0,3.54,0,5.45h-11q-10.06,0-20.12,0c-3.56,0-4.92,1.42-4.92,5q0,9.9,0,19.8c-.62.3-1.25.61-1.89.95-.87.42-4.11,2.27-11.62,9.4-1.66,1.57-4.32,3.92-7.41,6.63-12.85,11.31-32.27,28.39-36.68,39.24-3.46,8.51-.36,25.61,9.22,50.82.26.7.45,1.21.56,1.52a19.76,19.76,0,0,1,.62,2.52c.81,3.89,2,9.77,9,13.61a10.57,10.57,0,0,0,5.07,1.32,11.79,11.79,0,0,0,8.31-3.7c3.7-3.69,5-8.71,3-12.21-.64-1.17-1.07-2.13-1.43-2.92-1.19-2.61-2.32-5.08-7.07-4.49a12.1,12.1,0,0,0-1.32.22c-.08-9.27-.46-29-2.25-37.51,4.75-2.92,18-11.11,30.61-19.45L62.93,319.43A3.33,3.33,0,0,0,64.55,323a3.38,3.38,0,0,0,1.63.42,3.29,3.29,0,0,0,2.26-.89c.32-.3,32.42-29.76,64.5-22.81,12,2.58,22.18,7.07,32.07,11.4,17.71,7.76,34.4,15,55.55,7.89a50.26,50.26,0,0,0,11.81-5.33c4.07-2.69,7.39-6.4,11.5-9,4.68-2.9,10.48-3.39,15.82-4.08,3.89-.5,7.8-.88,11.71-1.21,22-1.86,32.61-.06,32.71-.05a3.28,3.28,0,0,0,3.71-2.21A3.35,3.35,0,0,0,306.17,293.14ZM294.57,3.88c-1.95,9.21-5.49,17-8.28,18.92a2.19,2.19,0,0,0-.62,2.06,2.77,2.77,0,0,0,1,1.88c1.85,1.5,12.32,11.87-2.53,19.87-2.43,1.31-4.68-.78-5.8-.92a2.79,2.79,0,0,0-2.77,1.4c-8.24,14.59-23.16,33.53-37.46,57.81-.45-2.07-1.95-3.17-4.45-3.18-2.77,0-5.54.1-8.31.1l-9,0ZM139.27,93.81a28,28,0,0,1,20.13-26.3c11.19-3.06,20.87-.23,28.78,8.16a26.39,26.39,0,0,1,7.17,17.52c.11,2.77,0,5.54,0,8.47H139.26C139.26,99,139.23,96.41,139.27,93.81Zm-35.81,15h28.85v7.45a16.64,16.64,0,0,0,0,1.87,2.89,2.89,0,0,1-1.19,2.72,6.28,6.28,0,0,0-1.92,7,6.89,6.89,0,0,0,12.45,1.55,6.76,6.76,0,0,0-1.64-9,1.87,1.87,0,0,1-.74-1.13c0-3.43,0-6.86,0-10.4h56.13c0,3.53,0,7,0,10.54,0,.4-.55.85-.93,1.19a6.87,6.87,0,0,0,2.5,11.84,6.82,6.82,0,0,0,8-3.38,6.67,6.67,0,0,0-1.72-8.48,2.13,2.13,0,0,1-.89-1.88c0-3.26,0-6.52,0-9.88H231.2V236.6H103.46Zm-45.59,79.4a2.8,2.8,0,0,0-1.18,3.31c2.13,6.07,2.56,32.73,2.55,42.5a2.79,2.79,0,0,0,5.14,1.51,4.58,4.58,0,0,1,2.44-.81,5.08,5.08,0,0,1,.66-.05c.17.31.43.86.64,1.32.39.87.88,1.94,1.6,3.27.6,1.1-.1,3.61-2.09,5.59-1,1-3.65,3.12-6.75,1.43-4.74-2.6-5.5-6.29-6.25-9.85a25.45,25.45,0,0,0-.82-3.26l-.61-1.62c-11.88-31.27-10.9-42.71-9.26-46.74,3.91-9.62,23.49-26.85,35.19-37.15,3.13-2.75,5.83-5.12,7.56-6.77,5.68-5.39,8.57-7.42,9.66-8.1V157l-1.58,7.71C78.2,175.83,58.18,188.07,57.87,188.26Zm213,104.54c-7.08.6-14.38,1.14-21.3,3.05a36,36,0,0,0-10.37,4.4c-3.17,2.1-5.79,4.92-9,7a50.07,50.07,0,0,1-11.93,5.5,47.91,47.91,0,0,1-24.37,1.61c-8.35-1.59-16.24-5-24-8.37l-2.24-1c-10.18-4.46-20.71-9.08-33.32-11.81A55.06,55.06,0,0,0,122.68,292c-21.61,0-41.16,12-51.37,19.63l25-121.7v48.9c0,3.17,1.55,4.86,4.48,4.86H233.59c3.14,0,4.68-1.51,4.69-4.61q0-9.12,0-18.24V163.4c21.63,83,44.29,116.08,56.31,128.6A211.22,211.22,0,0,0,270.84,292.8Z"/><path class="cls-1" d="M168.48,160.46a3,3,0,0,1-3.25,2.83h-8.49c-1.88,0-2.67-.95-2.4-2.83s-.56-2.83-2.44-2.83a2.93,2.93,0,0,0-3.21,2.83c-.54,3.77.93,6.12,4.54,7.07a16.69,16.69,0,0,1,8.91,5.65c2.34,2.83,3,7.07,2.15,12.72-.16,1.13-.24,1.7-.38,2.83-1.2,9.42-4.76,14.13-12.3,14.13H140.3c-7.54,0-11.51-4.71-10.31-14.13.14-1.13.22-1.7.38-2.83a3,3,0,0,1,3.25-2.82h8.48c1.88,0,2.67.94,2.4,2.82s.56,2.83,2.45,2.83a2.92,2.92,0,0,0,3.21-2.83c.54-3.77-.93-6.12-4.54-7.07a16.72,16.72,0,0,1-8.92-5.65c-2.33-2.83-3-7.07-2.15-12.72.16-1.13.24-1.7.38-2.83,1.2-9.42,4.77-14.13,12.3-14.13h11.31c7.54,0,11.52,4.71,10.32,14.13C168.71,158.76,168.64,159.33,168.48,160.46Z"/><path class="cls-1" d="M206.05,160.46a3,3,0,0,1-3.25,2.83h-8.49c-1.88,0-2.67-.95-2.4-2.83s-.56-2.83-2.44-2.83a2.93,2.93,0,0,0-3.21,2.83c-.54,3.77.93,6.12,4.54,7.07a16.69,16.69,0,0,1,8.91,5.65c2.34,2.83,3,7.07,2.15,12.72-.16,1.13-.24,1.7-.38,2.83-1.2,9.42-4.76,14.13-12.3,14.13H177.87c-7.54,0-11.51-4.71-10.31-14.13.14-1.13.22-1.7.38-2.83a3,3,0,0,1,3.25-2.82h8.48c1.88,0,2.67.94,2.4,2.82s.56,2.83,2.45,2.83a2.92,2.92,0,0,0,3.21-2.83c.54-3.77-.93-6.12-4.54-7.07a16.72,16.72,0,0,1-8.92-5.65c-2.33-2.83-3-7.07-2.15-12.72.16-1.13.24-1.7.38-2.83,1.2-9.42,4.77-14.13,12.3-14.13h11.31c7.54,0,11.52,4.71,10.32,14.13C206.29,158.76,206.21,159.33,206.05,160.46Z"/><text class="cls-2" transform="translate(0 419.04)">SuperSho<tspan class="cls-3" x="302.77" y="0">p</tspan></text></g></g></svg>