<svg xmlns="http://www.w3.org/2000/svg" viewBox="0 0 270.6 323.41"><defs><style>.cls-1{fill:#fff;}</style></defs><g id="Capa_2" data-name="Capa 2"><g id="Capa_2-2" data-name="Capa 2"><path class="cls-1" d="M268.78,293.14c-.36-.19-36.49-20.19-67.88-157.76V115.63c16.56-27.93,33.29-57.26,39.32-67.9a7.26,7.26,0,0,0,2.35,1.34c3.18,1.09,7,0,11.34-3.23a10,10,0,0,0,4.43-8c.11-5.48-4.33-10.67-7.08-13.36,5.16-7.08,11.48-19.15,9-22.83A3.65,3.65,0,0,0,257.18,0c-2.28,0-4.14,2.21-5.09,3.6l-80.31,98.13h-1.55c-1.72,0-3.44,0-5.29,0,0-2.32,0-4.51,0-6.69a34.76,34.76,0,0,0-7.25-21.83,34.24,34.24,0,0,0-26.64-13.72A33.3,33.3,0,0,0,112.75,64,34.51,34.51,0,0,0,97.84,80.55,36.19,36.19,0,0,0,95,96.26c.05,1.77,0,3.54,0,5.45H84q-10.06,0-20.12,0c-3.56,0-4.92,1.42-4.92,5q0,9.9,0,19.8c-.61.3-1.24.61-1.88.95-.88.42-4.11,2.27-11.63,9.4-1.65,1.57-4.31,3.92-7.4,6.63C25.2,154.83,5.78,171.91,1.37,182.76c-3.46,8.51-.36,25.61,9.21,50.82.27.7.46,1.21.57,1.52a21.62,21.62,0,0,1,.62,2.52c.81,3.89,2,9.77,9,13.61a10.56,10.56,0,0,0,5.06,1.32,11.8,11.8,0,0,0,8.32-3.7c3.7-3.69,5-8.71,3.05-12.21-.64-1.17-1.08-2.13-1.43-2.92-1.2-2.61-2.32-5.08-7.07-4.49a12.1,12.1,0,0,0-1.32.22c-.08-9.27-.46-29-2.26-37.51,4.76-2.92,18-11.11,30.62-19.45L25.54,319.43A3.32,3.32,0,0,0,27.16,323a3.38,3.38,0,0,0,1.63.42,3.29,3.29,0,0,0,2.26-.89c.32-.3,32.42-29.76,64.5-22.81,12,2.58,22.18,7.07,32.06,11.4,17.71,7.76,34.4,15,55.56,7.89A50.26,50.26,0,0,0,195,313.67c4.07-2.69,7.38-6.4,11.5-9,4.68-2.9,10.48-3.39,15.82-4.08,3.89-.5,7.8-.88,11.7-1.21,22-1.86,32.62-.06,32.72-.05a3.28,3.28,0,0,0,3.71-2.21A3.35,3.35,0,0,0,268.78,293.14ZM257.18,3.88c-2,9.21-5.49,17-8.28,18.92a2.19,2.19,0,0,0-.62,2.06,2.73,2.73,0,0,0,1,1.88c1.85,1.5,12.32,11.87-2.54,19.87-2.42,1.31-4.67-.78-5.79-.92a2.79,2.79,0,0,0-2.77,1.4C230,61.68,215,80.62,200.74,104.9c-.46-2.07-2-3.17-4.45-3.18-2.77,0-5.54.1-8.31.1l-9,0ZM101.87,93.81A28,28,0,0,1,122,67.51c11.19-3.06,20.86-.23,28.77,8.16A26.35,26.35,0,0,1,158,93.19c.11,2.77,0,5.54,0,8.47h-56.1C101.87,99,101.84,96.41,101.87,93.81Zm-35.8,15H94.92v7.45c0,.63,0,1.25,0,1.87a2.88,2.88,0,0,1-1.18,2.72,6.3,6.3,0,0,0-1.93,7,6.9,6.9,0,0,0,12.46,1.55,6.76,6.76,0,0,0-1.64-9,1.87,1.87,0,0,1-.74-1.13c-.06-3.43,0-6.86,0-10.4H158c0,3.53,0,7,0,10.54,0,.4-.55.85-.93,1.19a6.86,6.86,0,0,0,2.5,11.84,6.82,6.82,0,0,0,8-3.38,6.66,6.66,0,0,0-1.73-8.48,2.12,2.12,0,0,1-.88-1.88c0-3.26,0-6.52,0-9.88H193.8V236.6H66.07Zm-45.59,79.4a2.79,2.79,0,0,0-1.18,3.31c2.13,6.07,2.56,32.73,2.55,42.5A2.79,2.79,0,0,0,27,235.58a4.58,4.58,0,0,1,2.44-.81,5.08,5.08,0,0,1,.66-.05c.17.31.42.86.63,1.32.4.87.89,1.94,1.61,3.27.6,1.1-.1,3.61-2.09,5.59-1,1-3.65,3.12-6.75,1.43-4.74-2.6-5.51-6.29-6.25-9.85a23.89,23.89,0,0,0-.83-3.26c-.11-.32-.32-.88-.6-1.62-11.88-31.27-10.9-42.71-9.26-46.74C10.46,175.24,30,158,41.74,147.71c3.13-2.75,5.83-5.12,7.56-6.77,5.68-5.39,8.57-7.42,9.66-8.1V157l-1.59,7.71C40.81,175.83,20.79,188.07,20.48,188.26Zm213,104.54c-7.07.6-14.37,1.14-21.29,3.05a36,36,0,0,0-10.37,4.4c-3.17,2.1-5.79,4.92-9,7a50.44,50.44,0,0,1-11.93,5.5,47.91,47.91,0,0,1-24.37,1.61c-8.36-1.59-16.24-5-24-8.37l-2.24-1C120.09,300.57,109.56,296,97,293.22A55.06,55.06,0,0,0,85.29,292c-21.61,0-41.17,12-51.37,19.63l25-121.7q0,24.45,0,48.9c0,3.17,1.56,4.86,4.49,4.86H196.19c3.15,0,4.69-1.51,4.7-4.61,0-6.08,0-12.16,0-18.24V163.4c21.63,83,44.28,116.08,56.31,128.6A211.44,211.44,0,0,0,233.44,292.8Z"/><path class="cls-1" d="M131.08,160.46a3,3,0,0,1-3.25,2.83h-8.48c-1.88,0-2.67-.95-2.4-2.83s-.56-2.83-2.45-2.83a2.92,2.92,0,0,0-3.2,2.83c-.54,3.77.92,6.12,4.53,7.07a16.68,16.68,0,0,1,8.92,5.65c2.33,2.83,3,7.07,2.15,12.72-.16,1.13-.24,1.7-.38,2.83-1.2,9.42-4.76,14.13-12.3,14.13H102.91c-7.54,0-11.51-4.71-10.32-14.13.15-1.13.23-1.7.39-2.83a3,3,0,0,1,3.25-2.82h8.48c1.88,0,2.67.94,2.4,2.82s.56,2.83,2.45,2.83a2.92,2.92,0,0,0,3.21-2.83c.53-3.77-.94-6.12-4.54-7.07a16.68,16.68,0,0,1-8.92-5.65c-2.33-2.83-3-7.07-2.15-12.72.16-1.13.24-1.7.38-2.83,1.2-9.42,4.76-14.13,12.3-14.13h11.31c7.54,0,11.51,4.71,10.32,14.13C131.32,158.76,131.25,159.33,131.08,160.46Z"/><path class="cls-1" d="M168.65,160.46a3,3,0,0,1-3.25,2.83h-8.48c-1.88,0-2.67-.95-2.4-2.83s-.56-2.83-2.44-2.83a2.92,2.92,0,0,0-3.21,2.83c-.54,3.77.93,6.12,4.54,7.07a16.69,16.69,0,0,1,8.91,5.65c2.33,2.83,3,7.07,2.15,12.72-.16,1.13-.24,1.7-.38,2.83-1.2,9.42-4.76,14.13-12.3,14.13H140.48c-7.54,0-11.51-4.71-10.32-14.13.15-1.13.23-1.7.39-2.83a3,3,0,0,1,3.25-2.82h8.48c1.88,0,2.67.94,2.4,2.82s.56,2.83,2.45,2.83a2.92,2.92,0,0,0,3.21-2.83c.53-3.77-.93-6.12-4.54-7.07a16.72,16.72,0,0,1-8.92-5.65c-2.33-2.83-3-7.07-2.15-12.72.16-1.13.24-1.7.38-2.83,1.2-9.42,4.76-14.13,12.3-14.13h11.31c7.54,0,11.51,4.71,10.32,14.13C168.89,158.76,168.82,159.33,168.65,160.46Z"/></g></g></svg>