<svg xmlns="http://www.w3.org/2000/svg" viewBox="0 0 39.16 39.18"><defs>.cls-1{fill:#1a1a1a;}</defs><g id="Capa_2" data-name="Capa 2"><g id="Capa_2-2" data-name="Capa 2"><path class="cls-1" d="M24.21,30.59a48,48,0,0,1-6.48,1.69A16,16,0,0,1,.39,19.83,16.24,16.24,0,0,1,13.31.27a16.23,16.23,0,0,1,19,16.21,15.44,15.44,0,0,1-1.71,6.9,1.06,1.06,0,0,0,.23,1.48c2.56,2.54,5.07,5.11,7.6,7.67,1,1,1,1.29,0,2.29-1.24,1.28-2.52,2.52-3.74,3.81-.72.76-1.31.71-2,0C29.83,35.91,27,33.23,24.21,30.59ZM26,16.19a9.92,9.92,0,0,0-9.89-9.88,10,10,0,0,0-9.89,9.93,10,10,0,0,0,9.88,10A9.94,9.94,0,0,0,26,16.19Z"/></g></g></svg>