<svg xmlns="http://www.w3.org/2000/svg" viewBox="0 0 52.06 50.7"><defs><style>.cls-1{fill:#268dc9;}</style></defs><g id="Capa_2" data-name="Capa 2"><g id="Capa_2-2" data-name="Capa 2"><path class="cls-1" d="M52,48,45.56,20.81c-.36-1.5-1.54-2.73-2.63-2.73H35.6C35.75,14,35.42,7,32,3.05a8.79,8.79,0,0,0-6.91-3,8.84,8.84,0,0,0-6.92,3.05c-3.47,4-3.85,10.92-3.72,15H8.19c-1.09,0-2.24,1.23-2.55,2.73L.06,48A2.16,2.16,0,0,0,2.22,50.7H49.9A2.09,2.09,0,0,0,52,48ZM21,5.6a5.06,5.06,0,0,1,4-1.74,5,5,0,0,1,4,1.73c2.48,2.84,2.84,8.62,2.69,12.49H18.27C18.14,14.21,18.54,8.43,21,5.6Z"/></g></g></svg>