<svg xmlns="http://www.w3.org/2000/svg" viewBox="0 0 53.34 48.51"><defs><style>.cls-1{fill:#fff;}</style></defs><g id="Capa_2" data-name="Capa 2"><g id="Capa_2-2" data-name="Capa 2"><path class="cls-1" d="M20.37,30.08c.08.29.14.49.2.7.2.73.41,1.47.58,2.21.08.32.19.45.56.45,2.5,0,5,0,7.51,0h17a3.48,3.48,0,0,1,1.83.48,1.44,1.44,0,0,1,.12,2.52,3.18,3.18,0,0,1-1.94.55H18.78c-.32,0-.43-.08-.5-.4-.36-1.46-.76-2.91-1.15-4.36Q16,28,14.92,23.85q-1.47-5.58-3-11.15-1.1-4.14-2.18-8.3a.56.56,0,0,0-.63-.51c-2.38,0-4.75-.1-7.13-.16A2.08,2.08,0,0,1,0,1.88,1.53,1.53,0,0,1,1.25.12,11.93,11.93,0,0,1,3.32,0c2.37,0,4.73,0,7.1,0a2.17,2.17,0,0,1,2.37,1.81c.5,1.81,1,3.63,1.47,5.44a8.64,8.64,0,0,1,.24.83c.05.35.19.45.55.45H50.16a3.51,3.51,0,0,1,2.34.83A2.42,2.42,0,0,1,53.19,12q-1,2.54-2,5.07-2.31,6-4.63,11.89a1.59,1.59,0,0,1-1.41,1.07,5.46,5.46,0,0,1-.7,0H20.37Z" transform="translate(0)"/><path class="cls-1" d="M24.35,39.17A4.67,4.67,0,0,1,29,43.82a4.67,4.67,0,1,1-4.68-4.65Z" transform="translate(0)"/><path class="cls-1" d="M46,43.87a4.65,4.65,0,1,1-4.57-4.7A4.68,4.68,0,0,1,46,43.87Z" transform="translate(0)"/></g></g></svg>