<svg xmlns="http://www.w3.org/2000/svg" viewBox="0 0 60.33 50.73"><defs><style>.cls-1{fill:#268dc9;}</style></defs><g id="Capa_2" data-name="Capa 2"><g id="Capa_2-2" data-name="Capa 2"><path class="cls-1" d="M15.41,15.57A7.92,7.92,0,0,1,12.2,21,7.8,7.8,0,0,1,0,16.1a2,2,0,0,1,.29-1.53q4.44-7,8.82-14A1.1,1.1,0,0,1,10.22,0q19,0,38,0a1.28,1.28,0,0,1,1.15.6q5.27,7,10.58,14A1.74,1.74,0,0,1,60.31,16a7.07,7.07,0,0,1-6.87,6.34,7.27,7.27,0,0,1-7.66-6.75,15.88,15.88,0,0,1-1,2.71,8.58,8.58,0,0,1-2,2.36A7.76,7.76,0,0,1,40.2,22a7.56,7.56,0,0,1-3,.25c-3.54-.44-5.95-2.9-6.57-6.6-1.28,4.85-4.23,7.31-9.3,6.5C18.19,21.61,16,19,15.41,15.57Z"/><path class="cls-1" d="M5.1,25.49a10.84,10.84,0,0,0,10.56-2.44,11.08,11.08,0,0,0,15,0,11,11,0,0,0,14.93,0A10.87,10.87,0,0,0,55.8,25.6V50.73H5.1ZM46.28,47.54V31.8H36.85V47.54ZM11.45,31.77v9.41H27.2V31.77Z"/></g></g></svg>