<svg xmlns="http://www.w3.org/2000/svg" viewBox="0 0 50.05 50.05"><defs><style>.cls-1{fill:#268dc9;}</style></defs><g id="Capa_2" data-name="Capa 2"><g id="Capa_2-2" data-name="Capa 2"><path class="cls-1" d="M0,42.94c1-4.17,4.19-6.21,7.73-7.81a40.16,40.16,0,0,1,19.63-3.71,38.48,38.48,0,0,1,17.7,5.17,9.94,9.94,0,0,1,5,6.35v7.11H0Z"/><path class="cls-1" d="M26.47,0A15.48,15.48,0,0,1,32.8,2.73,12.47,12.47,0,0,1,25.69,25c-6.49.24-12.23-4.38-13-10.48A12.49,12.49,0,0,1,22.32.32L23.58,0Z"/></g></g></svg>